<svg xmlns="http://www.w3.org/2000/svg" xmlns:xlink="http://www.w3.org/1999/xlink" viewBox="0 0 5120 5120">
  <defs>
    <linearGradient id="a" x1="2560" x2="2560" y1="986" y2="4138" gradientUnits="userSpaceOnUse">
      <stop offset="0" stop-color="#fc5c7d"/>
      <stop offset=".1" stop-color="#f35e85"/>
      <stop offset=".3" stop-color="#d9659b"/>
      <stop offset=".6" stop-color="#b070bf"/>
      <stop offset=".9" stop-color="#777ff0"/>
      <stop offset="1" stop-color="#6a82fb"/>
    </linearGradient>
    <linearGradient xlink:href="#a" id="b" x1="3120" x2="3120" y1="986" y2="4138"/>
    <linearGradient xlink:href="#a" id="c" x1="4055" x2="4055" y1="986" y2="4138"/>
    <linearGradient xlink:href="#a" id="d" x1="4392" x2="4392" y1="986" y2="4138"/>
    <linearGradient xlink:href="#a" id="e" x1="988" x2="988" y1="986" y2="4138"/>
  </defs>
  <path d="M4160 3360a1597 1597 0 00-692-1317l124-247a80 80 0 00 8-36v-160a1042 1042 0 00-800-1012V160h-160v403q-40-3-80-3t-80 3V320h-160v268A1042 1042 0 00 1520 1600v160a80 80 0 00 8 36l124 247A1597 1597 0 00 960 3360a1586 1586 0 00 316 955 1614 1614 0 00 554 470 1602 1602 0 00 1527-37A1605 1605 0 00 4160 3360Zm-163-96a560 560 0 01-315-807 1431 1431 0 01 315 807Zm-427-930-24 37a720 720 0 00 452 1060 1433 1433 0 01-52 316A1040 1040 0 01 3270 2212l32-52h10a161 161 0 00 38-5 1447 1447 0 01 220 179Zm-611 1660a1205 1205 0 00-1040-205l-177-521a1205 1205 0 00 697-797l540 107A1205 1205 0 00 3321 3580ZM1729 1840h1662l-80 160H1809ZM3010 2420l-540-106a1205 1205 0 00 10-154h635a1204 1204 0 00-105 260Zm-690-260a1040 1040 0 01-1190 1030 1443 1443 0 01 74-314 728 728 0 00 76 4 720 720 0 00 720-720Zm-580-880h510a320 320 0 10 0-160h-427A880 880 0 01 3440 1600v80H1680v-80a875 875 0 01 60-320Zm660-80a160 160 0 11 160 160 160 160 0 01-160-160Zm-629 955a161 161 0 00 38 5h31a560 560 0 01-560 560h-10l38-73a1450 1450 0 01 463-492ZM1120 3360v-10a1214 1214 0 00 160 10 1197 1197 0 00 310-40l178 520a1217 1217 0 00-138 70 1193 1193 0 00-283 226A1427 1427 0 01 1120 3360Zm323 909a1040 1040 0 01 1688 160 1043 1043 0 01 92 210 1431 1431 0 01-300 115 720 720 0 00-1250-260 1456 1456 0 01-230-225Zm460 373a1410 1410 0 01-100-56 562 562 0 01 147-122 560 560 0 01 816 321A1445 1445 0 01 2560 4800a1424 1424 0 01-657-158Zm1460-87A1207 1207 0 00 3080 4100l363-415a1218 1218 0 00 128 86 1197 1197 0 00 324 129 1446 1446 0 01-530 655Z" fill="url(#a)"/>
  <path d="M3040 1360h160v160h-160" fill="url(#b)"/>
  <path d="m3631 4757 98 126a1916 1916 0 00 750-1440l-160-6a1756 1756 0 01-688 1320Z" fill="url(#c)"/>
  <path d="M4478 3277c-2-56-7-112-14-167l-159 20c7 50 11 102 13 153Z" fill="url(#d)"/>
  <path d="M1336 2096 1224 1980A1905 1905 0 00 640 3360a1938 1938 0 00 29 334l158-28A1777 1777 0 01 800 3360a1746 1746 0 01 536-1264Z" fill="url(#e)"/>
</svg>
