<svg xmlns="http://www.w3.org/2000/svg" xmlns:xlink="http://www.w3.org/1999/xlink" viewBox="0 0 5120 5120">
  <linearGradient id="a" x1="2456" x2="2610" y1="856" y2="3774" gradientUnits="userSpaceOnUse">
    <stop offset="0" stop-color="#fc5c7d"/>
    <stop offset=".1" stop-color="#f35e85"/>
    <stop offset=".3" stop-color="#d9659b"/>
    <stop offset=".6" stop-color="#b070bf"/>
    <stop offset=".9" stop-color="#777ff0"/>
    <stop offset="1" stop-color="#6a82fb"/>
  </linearGradient>
  <linearGradient xlink:href="#a" id="b" x1="1274" x2="1427" y1="919" y2="3837"/>
  <linearGradient xlink:href="#a" id="c" x1="1334" x2="1488" y1="915" y2="3834" gradientTransform="rotate(68.2 1400 2160)"/>
  <linearGradient xlink:href="#a" id="d" x1="1170" x2="1324" y1="924" y2="3842" gradientTransform="rotate(21.8 1281 3012)"/>
  <linearGradient xlink:href="#a" id="e" x1="3723" x2="3877" y1="790" y2="3708" gradientTransform="rotate(68.2 3842 3009)"/>
  <linearGradient xlink:href="#a" id="f" x1="3667" x2="3821" y1="793" y2="3711"/>
  <linearGradient xlink:href="#a" id="g" x1="3648" x2="3802" y1="794" y2="3712" gradientTransform="rotate(21.8 3724 2163)"/>
  <linearGradient xlink:href="#a" id="h" x1="2533" x2="2687" y1="852" y2="3770"/>
  <linearGradient xlink:href="#a" id="i" x1="2930" x2="3084" y1="831" y2="3750" gradientTransform="rotate(68.2 2962 1400)"/>
  <linearGradient xlink:href="#a" id="j" x1="2132" x2="2286" y1="873" y2="3792" gradientTransform="rotate(21.8 2162 1402)"/>
  <linearGradient xlink:href="#a" id="k" x1="2407" x2="2561" y1="859" y2="3777"/>
  <linearGradient xlink:href="#a" id="l" x1="2850" x2="3003" y1="836" y2="3754" gradientTransform="rotate(21.8 3010 3844)"/>
  <linearGradient xlink:href="#a" id="m" x1="1956" x2="2110" y1="883" y2="3801" gradientTransform="rotate(68.2 2113 3842)"/>
  <path d="M4036 3733 4150 3620l-113-114-113 114-113-114a80 80 0 00 0-113l-226-226a80 80 0 00-82-20l-38 13-582-582L4810 650a240 240 0 10-340-340L2542 2240 642 340a240 240 0 00-340 339l1900 1900-390 391-57-57a80 80 0 00-113 0L1416 3140a80 80 0 00-10 102l-320 229a80 80 0 00-10 121l57 57L1020 3760l-114-113L793 3760l113 113L680 4100l-56-56a80 80 0 00-122 10L219 4450a80 80 0 00 9 103l340 340a80 80 0 00 102 8l396-283a80 80 0 00 10-122L1020 4440l226-226 113 113 113-113L1360 4100l113-113 57 57a80 80 0 00 56 23h7a80 80 0 00 58-33l230-320a80 80 0 00 101-10l227-226a80 80 0 00 0-113l-57-57 391-390 420 419a80 80 0 00 0 113l395 396a80 80 0 00 114 0L4490 4864a80 80 0 00 113 0l226-226a80 80 0 00 0-113zm0 226-113 113L3810 3960l113-113zm-340-113-112-113 113-113 113 113zm888-3423a80 80 0 11 113 114L2768 2465l-113-113zM393 508a80 80 0 01 136-56l2765 2765-170 56L417 565a80 80 0 01-23-57zM1520 3356l65 66-226 226-103-103zm-943 868L680 4327l-226 226-65-65zm55 507-65-65L793 4440l103 103zm274-404-113-113 227-227 113 113zm340-340-113-113 113-113 113 113zm330-123L1471 3760l226-226 66 65zm349-330-340-339 113-113 340 340zm113-339-113-113 390-390 114 112zm1128 233 340-113L3640 3450l-226 226zm1380 1266-510-509 113-113 510 510" fill="url(#a)"/>
  <path d="M880 2480h960v160H880" fill="url(#b)"/>
  <path d="M1320 1945h160v430h-160" fill="url(#c)" transform="rotate(-68.2 1400 2161)"/>
  <path d="M1194 2928h172v160h-172" fill="url(#d)" transform="rotate(-21.8 1282 3011)"/>
  <path d="M3760 2922h160v172h-160" fill="url(#e)" transform="rotate(-68.2 3841 3010)"/>
  <path d="M3280 2480h960v160h-960" fill="url(#f)"/>
  <path d="M3505 2080h430v160h-430" fill="url(#g)" transform="rotate(-21.8 3724 2162)"/>
  <path d="M2480 880h160v960h-160" fill="url(#h)"/>
  <path d="M2745 1320h430v160h-430" fill="url(#i)" transform="rotate(-68.2 2961 1400)"/>
  <path d="M2080 1185h160v430h-160" fill="url(#j)" transform="rotate(-21.8 2162 1401)"/>
  <path d="M2480 3280h160v960h-160" fill="url(#k)"/>
  <path d="M2928 3754h160v172h-160" fill="url(#l)" transform="rotate(-21.8 3012 3844)"/>
  <path d="M2026 3760h172v160h-172" fill="url(#m)" transform="rotate(-68.2 2113 3842)"/>
</svg>
