<svg xmlns="http://www.w3.org/2000/svg" xmlns:xlink="http://www.w3.org/1999/xlink" viewBox="0 0 5120 5120">
  <linearGradient id="a" x1="1920" x2="1920" y1="-135" y2="4165" gradientUnits="userSpaceOnUse">
    <stop offset="0" stop-color="#fc5c7d"/>
    <stop offset=".1" stop-color="#f35e85"/>
    <stop offset=".3" stop-color="#d9659b"/>
    <stop offset=".6" stop-color="#b070bf"/>
    <stop offset=".9" stop-color="#777ff0"/>
    <stop offset="1" stop-color="#6a82fb"/>
  </linearGradient>
  <linearGradient xlink:href="#a" id="b" x1="2560" x2="2560" y1="-135" y2="4165"/>
  <linearGradient xlink:href="#a" id="c" x1="3240" x2="3240" y1="-135" y2="4165"/>
  <linearGradient xlink:href="#a" id="d" x1="1760" x2="1760" y1="-135" y2="4165"/>
  <linearGradient xlink:href="#a" id="e" x1="1840" x2="1840" y1="-135" y2="4165"/>
  <linearGradient xlink:href="#a" id="f" x1="1120" x2="1120" y1="-135" y2="4165"/>
  <linearGradient xlink:href="#a" id="g" x1="4560" x2="4560" y1="-135" y2="4165"/>
  <linearGradient xlink:href="#a" id="h" x1="3680" x2="3680" y1="-135" y2="4165"/>
  <linearGradient xlink:href="#a" id="i" x1="4640" x2="4640" y1="-135" y2="4165"/>
  <linearGradient xlink:href="#a" id="j" x1="4240" x2="4240" y1="-135" y2="4165"/>
  <path d="M1524 1322a687 687 0 00-204 430 524 524 0 00 147 420A517 517 0 00 1840 2320l47-2c158-12 310-84 430-204s192-272 204-430c12-162-40-310-147-418-219-218-600-193-849 56zm836 350a530 530 0 01-157 330 527 527 0 01-330 157c-114 9-219-27-292-101S1470 1880 1480 1765a530 530 0 01 157-330 522 522 0 01 363-158 360 360 0 01 260 102c73 74 110 178 100 293" fill="url(#a)"/>
  <path d="M1840 1638h160v160h-160" fill="url(#a)"/>
  <path d="M4890 1980a80 80 0 00-78-60h-423l-22-160H4640v-160h-296l-25-171a80 80 0 00-35-56l-140-93H4400v-160h-496l-100-67a80 80 0 00-44-13h-320V880h400V720h-400V382a80 80 0 00-52-75A2405 2405 0 00 480 1360a2370 2370 0 00-234 560H240v22a2414 2414 0 00-80 618 2386 2386 0 00 320 1200 2414 2414 0 00 383 497 2400 2400 0 00 2856 405 80 80 0 00 41-70V4400h240v-160h-240v-160h720v-160h-607l160-160H4400a80 80 0 00 80-80v-160h320v-160h-320v-174l365-67a80 80 0 00 63-63 2414 2414 0 00-19-1075zM1360 3040v160h1760v400H575a2211 2211 0 01-163-400H880v-160H371a2254 2254 0 01-50-400H1920v400zm3402-69-377 70a80 80 0 00-65 79v480h-320a80 80 0 00-57 23l-320 320a80 80 0 00-23 57v544A2242 2242 0 01 1174 4320H1600v-160H993l-17-16A2260 2260 0 01 668 3760H2480v400h-400v160h1360v-160h-800v-400h960v-160h-320v-400h880v-160H2080v-400h2240v-160h-720v-400h480v-160H2640v160h800v400H322a2254 2254 0 01 50-400H1200v-160H412a2211 2211 0 01 163-400H1200v-160H668a2260 2260 0 01 308-384l17-16H1520V800h-346A2244 2244 0 01 3280 438V1120a80 80 0 00 80 80h376l430 287L4240 2010a80 80 0 00 79 69h428a2256 2256 0 01 14 891" fill="url(#b)"/>
  <path d="M2720 1360h1040v160H2720" fill="url(#c)"/>
  <path d="M1680 800h160v160h-160" fill="url(#d)"/>
  <path d="M2000 800h1120v160H2000" fill="url(#b)"/>
  <path d="M1760 4160h160v160h-160" fill="url(#e)"/>
  <path d="M1040 3040h160v160h-160" fill="url(#f)"/>
  <path d="M4480 2480h160v160h-160" fill="url(#g)"/>
  <path d="M3600 400h160v160h-160" fill="url(#h)"/>
  <path d="M4560 1280h160v160h-160" fill="url(#i)"/>
  <path d="M4160 4240h160v160h-160" fill="url(#j)"/>
</svg>
